<?xml version="1.0" standalone="no"?>
<!DOCTYPE svg PUBLIC "-//W3C//DTD SVG 20010904//EN"
 "http://www.w3.org/TR/2001/REC-SVG-20010904/DTD/svg10.dtd">
<svg version="1.0" xmlns="http://www.w3.org/2000/svg"
 width="700.000000pt" height="700.000000pt" viewBox="0 0 700.000000 700.000000"
 preserveAspectRatio="xMidYMid meet">
<metadata>
Created by potrace 1.11, written by Peter Selinger 2001-2013
</metadata>
<g transform="translate(0.000000,700.000000) scale(0.100000,-0.100000)"
fill="#000000" stroke="none">
<path d="M1312 5953 c0 -577 -1 -1069 -1 -1094 l-1 -47 -617 0 c-340 0 -635
-1 -656 -1 l-37 -1 0 -2102 c1 -2229 0 -2171 46 -2288 48 -122 137 -232 244
-305 87 -59 150 -84 260 -105 25 -5 1355 -9 2955 -9 2344 0 2922 3 2970 13
255 55 450 248 508 501 15 64 17 364 17 3278 l0 3207 -2843 0 -2844 0 -1
-1047z"/>
</g>
</svg>
